/* XPM */
static char *b9a2fd241e454e33e3cdf21f77ce99f4zszDXewSBrHDGl3V[] = {
/* columns rows colors chars-per-pixel */
"184 32 64 1 ",
"  c None",
". c black",
"X c #010000",
"o c #010101",
"O c #010304",
"+ c #043C3D",
"@ c #043D3E",
"# c #043E3F",
"$ c #01655D",
"% c #01645E",
"& c #01655E",
"* c #00645F",
"= c #01645F",
"- c #065F61",
"; c #1F5274",
": c #1F5374",
"> c #1F5375",
", c #264F79",
"< c #274F7A",
"1 c #284F7A",
"2 c #284E7B",
"3 c #205273",
"4 c #205274",
"5 c #205275",
"6 c #205375",
"7 c #215375",
"8 c #225176",
"9 c #235177",
"0 c #215276",
"q c #215376",
"w c #225276",
"e c #225277",
"r c #235277",
"t c #205476",
"y c #215476",
"u c #255078",
"i c #255178",
"p c #265079",
"a c #27517B",
"s c #22587C",
"d c #23587D",
"f c #235A7F",
"g c #036360",
"h c #026361",
"j c #046261",
"k c #066062",
"l c #066163",
"z c #076163",
"x c #046262",
"c c #056262",
"v c #046362",
"b c #066164",
"n c #076164",
"m c #066264",
"M c #066466",
"N c #066567",
"B c #06686A",
"V c #066A6C",
"C c #076F71",
"Z c #077274",
"A c #245F86",
"S c #295C8A",
"D c #26628B",
"F c #296994",
/* pixels */
"                                                                                                                                                                                        ",
"                                                                                                                                                                                        ",
"        oooooo                         ooooo                                                              oooooo                              ooooo                                     ",
"      oooooooooo                      oooooo                                                            oooooooooo                            ooooo                                     ",
"     oooooooooooo                      ooooo                                                           oooooooooooo                           ooooo                                     ",
"    oooooooooooooo                     ooooo                                                          oooooooooooooo                          ooooo                                     ",
"   ooooooooooooooo                     ooooo                                                         ooooooooooooooo    7 7:7:i               ooooo                                     ",
"   ooooooooooooooo                     ooooo                                                         ooooooooooooooo   3  :7:77:              ooooo                                     ",
"  ooooooo    oooo                      ooooo                                                        ooooooo    oooo   :  7:t7t:2              ooooo       ooo                     ooo   ",
"  oooooo      oo          ooo   oo     ooooo      oooo   o                                          oooooo       oo  d  t:7t:>,7 h      oooo  ooooo     ooooooo        o         ooooo  ",
" oooooo                 oooooooooooo   ooooo    ooooooo ooooo ooooo    oooo  ooooo    ooooo         ooooo           D  777::77, &cb   ooooooo ooooo    ooooooooo    ooooo ooo   oooooo  ",
" oooooo                ooooooooooooo   ooooo    ooooooooooooo oooooo  ooooo  ooooo    ooooo         ooooo             t::tt772  bbM   ooooooooooooo   ooooooooooo   ooooooooo  oooooooo ",
"ooooooo               oooooooooooooo   ooooo   ooooooooooooo  ooooooooooooo  ooooo    ooooo        oooooo             777::72  cbbB  oooooooooooooo  oooooooooooo   ooooooooo  ooooo    ",
"ooooooo       oooooo  oooooooooooooo   ooooo  oooooooooooooo   oooooooooooo  ooooo    ooooo        oooooo             :t:7:<  c c-C  oooooooooooooo  ooooo   ooooo  ooooooooo  ooooo    ",
"ooooooo       oooooo  ooooo   oooooo   ooooo  oooooo  oooooo    oooooooooo   ooooo    ooooo        oooooo          y:  77:i  cb  -Z oooooo  ooooooo  oooo    ooooo  ooooooooo  ooooo    ",
"ooooooo       oooooo ooooo     ooooo   ooooo  ooooo    ooooo    oooooooooo   ooooo    ooooo        oooooo           77 ttt  gbbc  Z+ooooo    oooooo  oooo   oooooo  ooooooooo  oooooo   ",
" oooooo       oooooo ooooo     ooooo   ooooo  oooo      oooo     oooooooo    ooooo   oooooo         ooooo          F737 t, =cnbbz  #ooooo     ooooo  ooooooooooooo  ooooo       ooooo   ",
" ooooooo      oooooo ooooo     ooooo   ooooo  oooo      oooo     oooooooo    ooooo   oooooo         oooooo       o  s;:7  &zc-ncc  #ooooo     ooooo  ooooooooooooo  ooooo       oooooo  ",
"  oooooo      oooooo ooooo     ooooo   ooooo  ooooo     oooo     oooooooo    oooooo oooooo          ooooooo     ooo A77<  cnncc-b   ooooo     ooooo  ooooooooo      ooooo        ooooo  ",
"  oooooooooooooooooo oooooo   oooooo   ooooo  ooooo    ooooo    oooooooooo    oooooooooooo          ooooooooooooooo  Aa  bbccbbn  V oooooo   oooooo  ooooo          ooooo        oooooo ",
"   ooooooooooooooooo  oooooooooooooo   ooooo  oooooooooooooo   oooooooooooo    oooooooooo            ooooooooooooooo S  b-cb-bc  b  ooooooooooooooo  ooooo     o    ooooo       oooooo  ",
"   ooooooooooooooooo  oooooooooooooo   ooooo   ooooooooooooo   oooooooooooo    ooooooooo              oooooooooooooo   &ncnbnbn cM   oooooooooooooo   ooooooooooo   ooooo     oooooooo  ",
"    oooooooooooooooo   ooooooooooooo   ooooo   ooooooooooooo  oooooo  ooooo     oooooooo              ooooooooooooo    hnb-nnc cc    oooooooooooooo   ooooooooooo   ooooo     oooooooo  ",
"     ooooooooooooooo   ooooooooooooo   ooooo    ooooooooooooo ooooo   ooooo     ooooooo                 oooooooooo      gccnc  n      ooooooooooooo    oooooooooo   ooooo      oooooo   ",
"       oooooooo   oo    oooooo ooooo   ooooo     ooooo  oooo   oooo    oooo      oooooo                  oooooooo          b           oooooo  oooo     oooooooo    ooooo       ooo     ",
"                                                                               ooooooo                                                                                                  ",
"                                                                             oooooooo                                                                                                   ",
"                                                                             oooooooo                                                                                                   ",
"                                                                             ooooooo                                                                                                    ",
"                                                                              ooooo                                                                                                     ",
"                                                                                                                                                                                        ",
"                                                                                                                                                                                        "
};
